<?xml version="1.0" encoding="UTF-8"?>
<svg width="400px" height="400px" viewBox="0 0 400 400" version="1.1" xmlns="http://www.w3.org/2000/svg" xmlns:xlink="http://www.w3.org/1999/xlink">
    <!-- Generator: Sketch 50.2 (55047) - http://www.bohemiancoding.com/sketch -->
    <title>leaf-yellow</title>
    <desc>Created with Sketch.</desc>
    <defs>
        <path d="M180.000989,16.1659469 C149.845336,35.0243309 140.831102,34.0557155 116.507114,21.3992573 C116.326969,21.2999568 116.140731,21.211109 115.958845,21.1144217 C115.790013,21.0255739 115.627273,20.9419524 115.45583,20.8522335 L115.45583,20.8557177 C104.515693,15.1067415 92.0708619,11.8376646 78.8567142,11.8376646 C35.3050278,11.8376646 0,47.174705 0,90.7658815 C0,134.356187 35.3050278,169.694098 78.8567142,169.694098 C83.2193671,169.694098 87.4923825,169.32477 91.661836,168.642733 L91.6583549,168.647088 C150.605951,158.940029 164.601599,170.555574 187.328645,193.014036 C200.01541,205.55116 205.590346,226.695197 209.883378,252.30166 C209.896432,252.39225 209.915578,252.480227 209.928632,252.570817 C209.959961,252.752868 209.991291,252.930563 210.02175,253.112614 L210.024361,253.108259 C215.980475,289.616871 247.622545,317.485468 285.782051,317.485468 C328.185854,317.485468 362.560566,283.079588 362.560566,240.637336 C362.560566,221.75282 355.743757,204.469307 344.452902,191.089871 L344.466826,191.084645 C327.171992,170.564284 323.88238,163.729971 332.822642,130.26309 C335.428224,121.253748 336.829355,111.731352 336.829355,101.880569 C336.829355,45.6137709 291.257777,0 235.041082,0 C214.76297,0 195.870324,5.93712451 180.000989,16.1659469" id="path-1"></path>
        <linearGradient x1="85.6140267%" y1="12.087235%" x2="30.7190453%" y2="73.6920332%" id="linearGradient-3">
            <stop stop-color="#FF7700" offset="0%"></stop>
            <stop stop-color="#F4CC01" offset="100%"></stop>
        </linearGradient>
    </defs>
    <g id="leaf-yellow" stroke="none" stroke-width="1" fill="none" fill-rule="evenodd">
        <g id="Group-4-Copy-2" transform="translate(183.328846, 209.745677) rotate(-161.000000) translate(-183.328846, -209.745677) translate(1.828846, 50.745677)">
            <mask id="mask-2" fill="white">
                <use xlink:href="#path-1"></use>
            </mask>
            <g id="Clip-3"></g>
            <path d="M180.000989,16.1659469 C149.845336,35.0243309 140.831102,34.0557155 116.507114,21.3992573 C116.326969,21.2999568 116.140731,21.211109 115.958845,21.1144217 C115.790013,21.0255739 115.627273,20.9419524 115.45583,20.8522335 L115.45583,20.8557177 C104.515693,15.1067415 92.0708619,11.8376646 78.8567142,11.8376646 C35.3050278,11.8376646 0,47.174705 0,90.7658815 C0,134.356187 35.3050278,169.694098 78.8567142,169.694098 C83.2193671,169.694098 87.4923825,169.32477 91.661836,168.642733 L91.6583549,168.647088 C150.605951,158.940029 164.601599,170.555574 187.328645,193.014036 C200.01541,205.55116 205.590346,226.695197 209.883378,252.30166 C209.896432,252.39225 209.915578,252.480227 209.928632,252.570817 C209.959961,252.752868 209.991291,252.930563 210.02175,253.112614 L210.024361,253.108259 C215.980475,289.616871 247.622545,317.485468 285.782051,317.485468 C328.185854,317.485468 362.560566,283.079588 362.560566,240.637336 C362.560566,221.75282 355.743757,204.469307 344.452902,191.089871 L344.466826,191.084645 C327.171992,170.564284 323.88238,163.729971 332.822642,130.26309 C335.428224,121.253748 336.829355,111.731352 336.829355,101.880569 C336.829355,45.6137709 291.257777,0 235.041082,0 C214.76297,0 195.870324,5.93712451 180.000989,16.1659469" id="Fill-2" fill="url(#linearGradient-3)" mask="url(#mask-2)"></path>
        </g>
    </g>
</svg>